<?xml version="1.0" encoding="utf-8"?>
<!-- Generator: Adobe Illustrator 24.2.1, SVG Export Plug-In . SVG Version: 6.00 Build 0)  -->
<svg version="1.1"
	 id="svg3375" inkscape:version="0.92.4 (5da689c313, 2019-01-14)" sodipodi:docname="logo.svg" xmlns:cc="http://creativecommons.org/ns#" xmlns:dc="http://purl.org/dc/elements/1.1/" xmlns:inkscape="http://www.inkscape.org/namespaces/inkscape" xmlns:rdf="http://www.w3.org/1999/02/22-rdf-syntax-ns#" xmlns:sodipodi="http://sodipodi.sourceforge.net/DTD/sodipodi-0.dtd" xmlns:svg="http://www.w3.org/2000/svg"
	 xmlns="http://www.w3.org/2000/svg" xmlns:xlink="http://www.w3.org/1999/xlink" x="0px" y="0px" viewBox="0 0 268.8 100"
	 style="enable-background:new 0 0 268.8 100;" xml:space="preserve">
<style type="text/css">
	.st0{enable-background:new    ;}
	.st1{fill:#56347C;}
</style>
<sodipodi:namedview  bordercolor="#666666" borderopacity="1" fit-margin-bottom="0" fit-margin-left="0" fit-margin-right="0" fit-margin-top="0" gridtolerance="10" guidetolerance="10" id="namedview4121" inkscape:current-layer="svg3375" inkscape:cx="169.73267" inkscape:cy="62.480783" inkscape:pageopacity="0" inkscape:pageshadow="2" inkscape:window-height="671" inkscape:window-maximized="1" inkscape:window-width="1366" inkscape:window-x="0" inkscape:window-y="27" inkscape:zoom="2.1527971" objecttolerance="10" pagecolor="#ffffff" showgrid="false">
	</sodipodi:namedview>
<g id="g4139" transform="scale(0.79297827)">
	<g id="text3064" transform="matrix(0.54009561,0,0,0.54009561,46.786886,61.784177)" class="st0">
		<path id="path5241" inkscape:connector-curvature="0" class="st1" d="M146.4,78h33.5V-41.4h40.5v-28.1H105.9v28.1h40.5V78"/>
		<path id="path5243" inkscape:connector-curvature="0" class="st1" d="M212.8,46.8c0,19,12.9,33.9,33.3,33.9
			c12.7,0,23.3-5.9,32.8-14.3h0.7L282,78h27.1V13.8c0-34.4-15.8-50.7-44.6-50.7c-17.6,0-33.7,6.1-48,14.7l11.8,21.9
			c10.9-6.3,20.4-10.2,29.9-10.2c12,0,17,6.3,17.6,16.3C231.6,10.4,212.8,23.3,212.8,46.8 M244.5,44.3c0-8.6,7.7-15.4,31.4-18.5
			v19.7C270,51.3,265,55,257.4,55C249.4,55,244.5,51.6,244.5,44.3"/>
		<path id="path5245" inkscape:connector-curvature="0" class="st1" d="M351.4-50.7c11.3,0,19.2-7.2,19.2-17.4s-7.9-17.2-19.2-17.2
			c-11.1,0-19.2,7-19.2,17.2C332.2-57.9,340.3-50.7,351.4-50.7 M334.9,78h33.3V-34.2h-33.3V78"/>
		<path id="path5247" inkscape:connector-curvature="0" class="st1" d="M397.2,43.2c0,22.6,7.7,37.6,30.5,37.6
			c7.5,0,13.1-1.1,16.7-2.7l-4.1-24.7c-1.8,0.5-2.7,0.5-4.1,0.5c-2.7,0-5.9-2.3-5.9-9.3V-80.5h-33.3V43.2"/>
		<path id="path5249" inkscape:connector-curvature="0" class="st1" d="M451.8,65.1c11.3,9.3,28.3,15.6,43,15.6
			c30.1,0,46.1-15.8,46.1-36.2c0-20.6-16.1-28.5-30.3-33.7c-11.5-4.3-21.9-7-21.9-14.3c0-5.7,4.1-8.8,12.7-8.8
			c7.9,0,15.6,3.6,23.8,9.5L540-22.6c-9.7-7.2-22.4-14.3-39.6-14.3c-26,0-43,14.3-43,35.1c0,18.5,16.1,27.8,29.6,33
			c11.5,4.5,22.8,7.9,22.8,15.4c0,5.9-4.3,9.5-14.3,9.5c-9.5,0-18.8-4.1-29-11.8L451.8,65.1"/>
	</g>
	<g id="g5374" transform="matrix(1.2550913,0,0,1.2550913,-12.550913,-12.55091)">
		<path id="path5189-4" inkscape:connector-curvature="0" class="st1" d="M88.3,56.7v16.7c0,0.5-0.3,0.6-0.8,0.3l-8.5-7
			c-0.4-0.3-0.8-1-0.8-1.6V63l-2.7-2.2c-2.9-2.3-5.1-7-5.1-10.5c0-3.4,2.3-4.3,5.1-2l2.7,2.2v-2.1c0-0.5,0.3-0.6,0.8-0.3l8.5,7
			C88,55.5,88.3,56.2,88.3,56.7z M75.8,51.4c-1.5-1.2-2.7-0.8-2.7,1.1c0,1.8,1.2,4.3,2.7,5.5l2.5,2v-6.6L75.8,51.4L75.8,51.4z"/>
		<g id="g3500" transform="matrix(0.46410314,0.9267926,-0.9267926,0.46410314,77.258376,-14.89278)">
			<path id="path3502" inkscape:connector-curvature="0" class="st1" d="M98,37.8C98,37.8,98,37.8,98,37.8c0-0.1,0-0.2-0.1-0.3
				c0,0,0,0,0,0c0-0.1-0.1-0.1-0.1-0.2c0,0,0,0,0-0.1c0,0-0.1-0.1-0.1-0.1c0,0,0,0,0,0c-0.1-0.1-0.1-0.1-0.2-0.1c0,0,0,0,0,0
				c0,0-0.1,0-0.1-0.1l-0.5-0.3L71.8,47.7L25.3,24.3l-0.7,0.3c0,0,0,0,0,0c0,0-0.1,0.1-0.1,0.1c0,0-0.1,0-0.1,0.1
				c0,0-0.1,0.1-0.1,0.1c0,0-0.1,0.1-0.1,0.1c0,0,0,0.1-0.1,0.1c0,0-0.1,0.1-0.1,0.1c0,0,0,0,0,0c0,0,0,0.1,0,0.1c0,0,0,0.1-0.1,0.1
				c0,0,0,0.1,0,0.1c0,0,0,0.1,0,0.1c0,0,0,0.1,0,0.1c0,0,0,0.1,0,0.1c0,0,0,0,0,0.1c0,0.1,0,0.1,0,0.2l0,15.6l3.4-1.6l36.4,18.1
				L38.5,69.3l-18.9-9.5l-17-8.5c0,0,0,0,0,0c0,0-0.1,0-0.1,0c0,0-0.1,0-0.1,0c0,0-0.1,0-0.1,0c0,0-0.1,0-0.1,0c0,0,0,0,0,0
				c0,0,0,0-0.1,0c0,0-0.1,0-0.1,0c0,0-0.1,0-0.1,0c0,0-0.1,0-0.1,0c0,0-0.1,0-0.1,0.1c0,0-0.1,0-0.1,0.1c0,0-0.1,0-0.1,0.1
				c0,0-0.1,0.1-0.1,0.1c0,0-0.1,0.1-0.1,0.1c0,0-0.1,0.1-0.1,0.1c0,0-0.1,0.1-0.1,0.1c0,0,0,0,0,0.1c0,0,0,0,0,0c0,0,0,0.1-0.1,0.1
				c0,0,0,0.1,0,0.1c0,0,0,0.1,0,0.1c0,0,0,0.1,0,0.1c0,0,0,0,0,0l0,19.5c0,0,0,0.1,0,0.1c0,0,0,0.1,0,0.1c0,0,0,0.1,0,0.1
				c0,0,0,0.1,0,0.1c0,0,0,0.1,0.1,0.1c0,0,0,0.1,0.1,0.1c0,0,0,0.1,0.1,0.1C1,72.9,1,73,1,73c0,0,0.1,0.1,0.1,0.1
				c0,0,0.1,0.1,0.1,0.1c0,0,0.1,0.1,0.1,0.1c0,0,0,0,0.1,0l36.5,18.3c0,0,0,0,0,0c0,0,0,0,0,0c0,0,0,0,0,0c0.1,0,0.1,0,0.2,0.1
				c0,0,0,0,0,0c0,0,0,0,0,0c0.1,0,0.2,0,0.2,0c0,0,0,0,0,0h0h0c0,0,0,0,0,0c0.1,0,0.2,0,0.2,0c0,0,0,0,0,0c0,0,0,0,0,0
				c0.1,0,0.1,0,0.2-0.1c0,0,0,0,0,0c0,0,0,0,0,0c0,0,0,0,0,0l22.6-9.9l9.5,5.2c0,0,0,0,0.1,0c0,0,0,0,0.1,0c0,0,0,0,0,0
				c0,0,0.1,0,0.1,0c0,0,0,0,0.1,0c0,0,0,0,0.1,0c0,0,0,0,0,0c0,0,0,0,0,0c0,0,0,0,0,0c0.1,0,0.1,0,0.2,0h0h0c0,0,0,0,0,0
				c0.1,0,0.2,0,0.2,0c0,0,0,0,0,0c0,0,0,0,0,0c0.1,0,0.1,0,0.2-0.1c0,0,0,0,0,0c0,0,0,0,0,0c0,0,0,0,0,0l24.8-11.6
				c0.5-0.2,0.8-0.7,0.8-1.2L98,38c0,0,0,0,0,0C98,37.9,98,37.9,98,37.8z M37.2,78.4l-7.6,3.7l4,2l3.6-2l0,6.3L3.3,71.4l0-9.8
				l8.7,4.2l-7.3,3.3l4,2l7.3-3.4l4.3,2.1l-7.5,3.5l4,2l7.5-3.5l4.6,2.3l-7.4,3.4l4,2l7.4-3.4l4.3,2.1L37.2,78.4z M65.2,76.9
				L39.9,88.2l0-16.6l25.4-11.3L65.2,76.9z M3.3,58.5l0-3.3l33.9,16.6v3.3L3.3,58.5z"/>
		</g>
		<polygon id="polygon3506" class="st1" points="35,45.2 35,38.5 40.5,42.8 40.5,49.4 		"/>
		<polygon id="polygon3508" class="st1" points="40.5,37.5 35,33.2 35,26.5 40.5,30.8 		"/>
		<g id="Captions" transform="matrix(0,-0.2492475,0.19547686,0.16114179,71.005984,62.192969)">
		</g>
		<g id="Captions-7" transform="translate(122.10986,-55.111168)">
		</g>
		<path id="path4818-2-4-3" inkscape:connector-curvature="0" class="st1" d="M45.1,34.3c2.1,2.7,4.3,8,4.3,12.9
			c0,4.9-2.2,6.5-4.3,5.7C45.1,50.9,45.1,36.1,45.1,34.3z"/>
		<g id="Your_Icon" transform="translate(74.936297,109.72221)">
		</g>
	</g>
</g>
</svg>
