<?xml version="1.0" encoding="utf-8"?>
<!-- Generator: Adobe Illustrator 24.2.1, SVG Export Plug-In . SVG Version: 6.00 Build 0)  -->
<svg version="1.1" id="Layer_1" xmlns="http://www.w3.org/2000/svg" xmlns:xlink="http://www.w3.org/1999/xlink" x="0px" y="0px"
	 viewBox="0 0 512 512" style="enable-background:new 0 0 512 512;" xml:space="preserve">
<style type="text/css">
	.st0{fill:#FFFFFF;}
	.st1{fill-rule:evenodd;clip-rule:evenodd;fill:#56347C;}
	.st2{fill-rule:evenodd;clip-rule:evenodd;}
</style>
<g id="tor-browser-icon">
	<g id="icon_512x512">
		<g id="Group">
			<g id="tb_x5F_icon_x2F_Stable">
				<g id="Stable">
					<circle id="background" class="st0" cx="256" cy="256" r="246"/>
					<path id="center" class="st1" d="M256.5,465.4v-31c98.3-0.3,177.9-80,177.9-178.4S354.8,77.9,256.5,77.6v-31
						C372,46.8,465.4,140.5,465.4,256S372,465.2,256.5,465.4z M256.5,356.8c55.4-0.3,100.3-45.3,100.3-100.8
						s-44.9-100.5-100.3-100.8v-31c72.6,0.3,131.4,59.2,131.4,131.8c0,72.7-58.8,131.6-131.4,131.9V356.8z M256.5,201.7
						c29.7,0.3,53.8,24.5,53.8,54.3s-24,54-53.8,54.3V201.7z M0,256c0,141.4,114.6,256,256,256s256-114.6,256-256S397.4,0,256,0
						S0,114.6,0,256z"/>
					<g id="half" transform="translate(140.500000, 259.000000) scale(-1, 1) translate(-140.500000, -259.000000) ">
						<g>
							<path id="path-2" class="st2" d="M25,29c127.6,0,231,103,231,230S152.6,489,25,489V29z"/>
						</g>
						<g>
							<path id="path-2_1_" class="st1" d="M25,29c127.6,0,231,103,231,230S152.6,489,25,489V29z"/>
						</g>
					</g>
				</g>
			</g>
		</g>
	</g>
</g>
</svg>
